<?xml version="1.0" standalone="no"?>
<!DOCTYPE svg PUBLIC "-//W3C//DTD SVG 20010904//EN"
 "http://www.w3.org/TR/2001/REC-SVG-20010904/DTD/svg10.dtd">
<svg version="1.0" xmlns="http://www.w3.org/2000/svg"
 width="403.000000pt" height="299.000000pt" viewBox="0 0 403.000000 299.000000"
 preserveAspectRatio="xMidYMid meet">

<g transform="translate(0.000000,299.000000) scale(0.100000,-0.100000)"
fill="#000000" stroke="none">
<path d="M0 1495 l0 -1495 2015 0 2015 0 0 1495 0 1495 -2015 0 -2015 0 0
-1495z m2260 1145 c46 -12 118 -38 158 -56 74 -34 206 -116 218 -136 4 -5 -31
-48 -77 -94 l-83 -83 -31 23 c-86 66 -219 119 -344 136 -177 25 -397 -31 -537
-135 l-31 -24 -81 82 c-45 46 -82 85 -82 88 0 11 127 97 186 127 74 37 167 69
254 88 101 21 342 12 450 -16z m-874 -524 c-15 -20 -43 -68 -62 -107 -117
-237 -95 -545 55 -762 l30 -44 -22 -21 c-18 -17 -41 -22 -127 -27 l-106 -7
-41 88 c-53 113 -69 164 -88 271 -45 258 15 528 166 743 l51 73 86 -86 85 -86
-27 -35z m1428 140 c67 -93 124 -213 153 -323 23 -85 26 -119 27 -253 1 -185
-19 -276 -92 -434 l-46 -98 -111 7 c-85 5 -114 11 -128 24 -18 17 -17 20 13
64 48 72 96 184 115 271 14 61 16 106 12 200 -7 160 -42 266 -126 392 l-32 47
83 84 c45 45 84 83 85 83 1 0 22 -29 47 -64z m-273 -1131 c354 -24 922 -98
953 -124 17 -14 -55 -413 -75 -420 -8 -2 -52 -24 -99 -48 -113 -58 -124 -56
-128 23 l-3 61 -42 6 c-480 61 -744 80 -1142 79 -399 0 -741 -23 -1137 -78
l-48 -7 0 -59 c0 -45 -4 -60 -17 -65 -10 -4 -57 14 -122 48 l-106 54 -36 195
c-20 107 -34 200 -32 206 7 19 454 86 763 114 367 33 907 39 1271 15z"/>
<path d="M1790 1084 c-340 -11 -678 -42 -1005 -90 -202 -30 -215 -33 -215 -48
0 -13 52 -300 55 -304 1 -1 71 9 156 23 797 130 1697 128 2483 -6 65 -11 119
-19 121 -17 7 7 57 309 52 314 -12 12 -413 69 -662 94 -253 25 -747 42 -985
34z m-25 -74 c8 -38 0 -50 -35 -50 l-29 0 6 -80 6 -80 -37 0 c-20 0 -39 0 -43
0 -5 0 -10 35 -13 77 l-5 78 -30 0 c-27 0 -30 3 -33 37 l-3 37 73 4 c40 1 87
4 105 5 27 2 32 -2 38 -28z m120 -22 c3 -29 5 -82 3 -118 l-3 -65 -42 -3 -41
-3 -4 113 c-2 62 -2 116 0 121 2 4 21 7 42 7 l39 0 6 -52z m123 17 l18 -36 17
36 c15 31 21 35 57 35 22 0 40 -5 40 -10 0 -6 -14 -39 -32 -73 -17 -34 -34
-82 -37 -107 -6 -45 -6 -45 -46 -45 -40 0 -40 0 -46 45 -3 25 -20 73 -37 107
-18 34 -32 67 -32 73 0 5 18 10 40 10 35 0 41 -4 58 -35z m430 8 c49 -30 49
-103 1 -128 -15 -8 -42 -15 -59 -15 -28 0 -30 -3 -30 -35 0 -35 0 -35 -45 -35
l-45 0 0 89 c0 49 3 103 6 120 l6 31 72 -6 c39 -4 81 -13 94 -21z m-932 -16
c22 -19 28 -34 32 -81 6 -69 -10 -104 -55 -123 -88 -36 -155 2 -168 94 -5 38
-3 59 9 81 21 41 41 51 103 52 40 0 58 -5 79 -23z m1170 -97 c18 -63 30 -118
27 -122 -6 -11 -66 2 -78 17 -15 18 -76 25 -82 8 -7 -18 -83 -18 -83 0 0 12
72 186 87 210 2 4 26 7 51 5 l47 -3 31 -115z m101 104 c16 -5 24 -16 29 -43
14 -84 18 -87 38 -27 l19 56 44 0 c23 0 43 -3 43 -7 0 -5 -20 -55 -43 -113
l-43 -105 -47 1 c-26 0 -49 3 -52 6 -8 7 -30 113 -40 186 -7 56 -3 60 52 46z
m-1593 -36 c3 -18 8 -54 11 -80 l6 -48 48 0 c47 0 49 -1 53 -30 3 -17 2 -33
-2 -35 -3 -2 -44 -7 -91 -11 -71 -5 -87 -4 -92 8 -3 8 -8 60 -12 116 -7 100
-7 100 16 105 53 10 58 8 63 -25z m1953 -7 c12 -3 23 -9 23 -13 1 -62 5 -59
-57 -52 -43 4 -54 3 -43 -5 8 -6 29 -11 47 -11 38 0 46 -10 37 -45 -6 -24 -9
-25 -57 -19 -36 5 -48 4 -43 -5 4 -6 19 -11 34 -11 56 0 72 -10 66 -39 -4 -14
-8 -29 -10 -32 -4 -7 -173 17 -181 25 -6 6 16 206 24 219 5 8 116 0 160 -12z
m-2098 -8 c29 -24 49 -121 33 -157 -17 -38 -58 -59 -113 -60 -63 -1 -96 29
-105 96 -8 57 0 92 26 118 27 27 128 28 159 3z m-214 -20 c-4 -10 -14 -37 -23
-59 l-15 -41 41 -50 c23 -27 42 -52 42 -55 0 -3 -21 -9 -46 -13 -43 -6 -49 -4
-70 22 l-23 28 -1 -32 c0 -18 -4 -33 -9 -33 -5 0 -22 -3 -38 -6 l-30 -6 -18
112 c-20 123 -18 130 37 130 20 0 29 -7 36 -27 7 -18 11 -22 11 -10 2 30 38
57 77 57 30 0 35 -3 29 -17z m2435 11 l32 -7 -6 -52 c-3 -28 -9 -65 -12 -83
-6 -30 -5 -32 22 -32 16 0 39 -3 52 -6 20 -6 22 -11 16 -38 -3 -17 -7 -32 -9
-34 -3 -4 -175 24 -180 30 -4 4 22 187 31 216 4 14 9 14 54 6z"/>
<path d="M2350 950 c0 -11 7 -20 15 -20 8 0 15 9 15 20 0 11 -7 20 -15 20 -8
0 -15 -9 -15 -20z"/>
<path d="M1404 936 c-3 -9 -3 -32 0 -52 5 -26 12 -34 24 -32 25 5 24 91 -1 96
-9 2 -20 -4 -23 -12z"/>
<path d="M2577 900 c-3 -13 0 -20 9 -20 8 0 14 9 14 20 0 11 -4 20 -9 20 -5 0
-11 -9 -14 -20z"/>
<path d="M940 866 c0 -43 9 -66 25 -66 18 0 26 27 19 66 -4 24 -12 34 -25 34
-15 0 -19 -7 -19 -34z"/>
<path d="M721 601 l-34 -6 36 -17 37 -18 0 25 c0 14 -1 24 -2 24 -2 -1 -18 -4
-37 -8z"/>
<path d="M3250 583 c0 -23 1 -23 30 -8 17 9 30 17 30 19 0 2 -13 6 -30 8 -26
4 -30 1 -30 -19z"/>
</g>
</svg>
